<svg width="30" height="51" viewBox="0 0 30 51" fill="none" xmlns="http://www.w3.org/2000/svg">
<path d="M15 0C13.8375 1.32823 13.125 3.05744 13.125 4.96207C13.2 9.14726 13.7 13.3199 13.75 17.4926C13.8375 21.3895 12.675 25.0484 11.2625 28.6196C10.7875 29.6095 10.275 30.5744 9.7625 31.5392L8.2625 31.2385C6.9125 30.9628 6.025 29.6471 6.3 28.2938C6.5375 27.1034 7.575 26.2764 8.7375 26.2764L9.2875 26.3391L8.0625 16.1142C7.6625 11.5531 5.325 7.55588 1.875 4.96207C1.2875 4.51098 0.65 4.11 0 3.74662V40.0474H8.3625C8.9875 43.4432 10.85 46.4129 13.475 48.4429C14.1 48.8689 14.625 49.4453 15 50.1094C15.375 49.4453 15.9 48.8814 16.525 48.4429C19.15 46.4129 21.0125 43.4432 21.6375 40.0474H30V3.74662C29.35 4.11 28.7125 4.51098 28.125 4.96207C24.675 7.55588 22.3375 11.5531 21.9375 16.1017L20.7125 26.3266L21.2625 26.2639C22.425 26.2639 23.4625 27.0909 23.7 28.2813C23.975 29.6346 23.0875 30.9628 21.7375 31.226L20.2375 31.5267C19.725 30.5619 19.2125 29.597 18.7375 28.6071C17.325 25.0359 16.15 21.377 16.25 17.48C16.3 13.2948 16.8 9.1222 16.875 4.94954C16.875 3.05744 16.1625 1.32823 15 0ZM2.5 8.98436C4.1125 10.889 5.2 13.2573 5.525 15.8636L6.525 24.2966C5.25 24.9357 4.275 26.1135 3.9125 27.5295H2.5V8.98436ZM27.5 8.98436V27.5295H26.0875C25.725 26.1135 24.75 24.9357 23.475 24.2966L24.475 15.8636C24.8 13.2573 25.8875 10.8765 27.5 8.98436ZM15 25.9256C15.675 28.1309 16.6 30.2235 17.75 32.1658C16.6625 32.5041 15.7125 33.1431 15 34.0203C14.3 33.1557 13.35 32.5041 12.25 32.1658C13.4 30.2235 14.325 28.1309 15 25.9256ZM2.5 30.0356H3.9125C4.3625 31.7648 5.7 33.1306 7.4125 33.6068L8.6125 33.8824C8.2875 35.0478 8.1125 36.2883 8.1125 37.5539H2.5V30.0356ZM26.0875 30.0356H27.5V37.5539H21.875C21.875 36.2883 21.7 35.0478 21.375 33.8824L22.575 33.6068C24.2875 33.1306 25.6375 31.7648 26.0875 30.0356ZM11.0625 34.4588C12.575 34.6719 13.75 35.975 13.75 37.5539H10.625C10.625 36.4762 10.7875 35.4362 11.0625 34.4588ZM18.9375 34.4588C19.2125 35.4487 19.375 36.4762 19.375 37.5539H16.25C16.25 35.975 17.425 34.6719 18.9375 34.4588ZM10.9125 40.06H13.75V45.3353C12.375 43.8943 11.375 42.0774 10.9125 40.06ZM16.25 40.06H19.0875C18.625 42.0774 17.625 43.8943 16.25 45.3353V40.06Z" fill="#FFE449"/>
</svg>
